<svg xmlns="http://www.w3.org/2000/svg" id="canvas" viewBox="280.417 412.766 1254.748 224.703"><path d="M 371.63,421.87 C 371.15 419.85, 369.90 417.67, 366.97 416.56 C 364.04 415.45, 361.46 415.63, 356.98 416.33 C 352.51 417.02, 349.86 417.54, 344.60 420.06 C 339.34 422.58, 336.47 424.39, 330.68 428.92 C 324.89 433.46, 321.56 436.45, 315.64 442.74 C 309.73 449.03, 306.30 452.92, 301.11 460.38 C 295.92 467.84, 293.13 472.19, 289.70 480.05 C 286.26 487.90, 284.87 492.23, 283.95 499.66 C 283.03 507.09, 283.23 510.92, 285.10 517.18 C 286.98 523.45, 288.86 526.39, 293.31 531.00 C 297.77 535.61, 300.97 537.53, 307.36 540.22 C 313.75 542.91, 317.78 543.69, 325.25 544.43 C 332.72 545.17, 337.01 544.75, 344.71 543.93 C 352.40 543.12, 356.48 542.30, 363.72 540.36 C 370.96 538.41, 374.75 537.15, 380.91 534.20 C 387.07 531.24, 390.01 529.25, 394.52 525.58 C 399.03 521.91, 401.01 519.99, 403.46 515.87 C 405.90 511.75, 406.84 509.21, 406.74 504.98 C 406.64 500.75, 405.57 498.18, 402.96 494.72 C 400.35 491.27, 398.07 489.91, 393.69 487.72 C 389.32 485.52, 386.33 484.82, 381.09 483.76 C 375.85 482.69, 372.76 482.56, 367.49 482.39 C 362.23 482.23, 359.44 482.42, 354.77 482.93 C 350.10 483.44, 347.58 483.32, 344.14 484.93 C 340.71 486.53, 338.89 488.05, 337.60 490.94 C 336.32 493.84, 336.32 496.53, 337.72 499.40 C 339.11 502.27, 340.75 503.51, 344.58 505.30 C 348.41 507.09, 351.16 507.29, 356.88 508.35 C 362.60 509.41, 366.25 509.84, 373.17 510.60 C 380.08 511.36, 384.11 511.58, 391.45 512.15 C 398.79 512.72, 402.88 512.91, 409.87 513.43 C 416.85 513.96, 420.35 514.18, 426.39 514.77 C 432.42 515.36, 435.21 515.68, 440.03 516.39 C 444.84 517.09, 446.98 517.69, 450.46 518.28 C 453.94 518.88, 455.20 519.41, 457.42 519.37 C 459.64 519.34, 460.35 518.69, 461.55 518.11 C 462.76 517.53, 463.00 517.32, 463.43 516.47 C 463.85 515.63, 463.95 514.80, 463.68 513.88 C 463.41 512.97, 463.16 512.68, 462.08 511.90 C 460.99 511.13, 460.42 510.44, 458.25 510.02 C 456.09 509.59, 454.78 509.84, 451.25 509.78 C 447.72 509.73, 445.50 509.87, 440.61 509.73 C 435.72 509.59, 432.89 509.39, 426.82 509.06 C 420.74 508.74, 417.22 508.58, 410.25 508.11 C 403.27 507.64, 399.18 507.44, 391.94 506.70 C 384.70 505.97, 380.68 505.63, 374.05 504.45 C 367.41 503.26, 363.85 502.41, 358.76 500.79 C 353.67 499.17, 351.54 497.59, 348.61 496.34 C 345.67 495.09, 345.08 494.79, 344.09 494.54 C 343.11 494.29, 342.93 495.17, 343.68 495.07 C 344.43 494.98, 345.37 494.83, 347.83 494.05 C 350.29 493.27, 352.10 491.93, 356.00 491.17 C 359.89 490.40, 362.61 490.13, 367.30 490.22 C 371.98 490.31, 374.91 490.59, 379.43 491.60 C 383.95 492.61, 386.54 493.57, 389.90 495.26 C 393.27 496.96, 394.49 498.06, 396.24 500.08 C 398.00 502.10, 398.45 502.89, 398.66 505.35 C 398.87 507.82, 398.91 509.29, 397.30 512.42 C 395.68 515.55, 394.34 517.59, 390.59 520.99 C 386.84 524.39, 384.17 526.51, 378.53 529.42 C 372.89 532.33, 369.27 533.62, 362.40 535.53 C 355.53 537.44, 351.52 538.22, 344.19 538.98 C 336.86 539.73, 332.73 540.04, 325.78 539.31 C 318.82 538.58, 315.15 537.73, 309.41 535.34 C 303.66 532.94, 300.97 531.25, 297.06 527.33 C 293.15 523.41, 291.56 521.15, 289.85 515.73 C 288.15 510.31, 287.76 506.99, 288.54 500.21 C 289.31 493.42, 290.48 489.25, 293.72 481.80 C 296.96 474.34, 299.65 470.06, 304.73 462.92 C 309.81 455.78, 313.25 451.97, 319.11 446.09 C 324.97 440.20, 328.40 437.36, 334.04 433.50 C 339.68 429.64, 342.60 428.32, 347.33 426.80 C 352.05 425.27, 354.28 425.74, 357.68 425.87 C 361.08 425.99, 362.00 427.26, 364.33 427.43 C 366.67 427.59, 367.89 427.80, 369.35 426.69 C 370.80 425.58, 372.10 423.90, 371.63 421.87" style="stroke: black; fill: black;"/><path d="M 480.01,529.00 C 481.47 530.21, 482.97 530.69, 485.46 530.33 C 487.96 529.97, 489.45 528.94, 492.49 527.20 C 495.52 525.46, 497.25 523.97, 500.62 521.63 C 504.00 519.29, 505.95 517.97, 509.35 515.50 C 512.76 513.04, 514.63 511.84, 517.65 509.33 C 520.67 506.82, 522.57 505.86, 524.44 502.97 C 526.31 500.07, 526.84 498.07, 527.00 494.86 C 527.15 491.65, 526.90 489.78, 525.23 486.93 C 523.57 484.07, 522.08 481.94, 518.66 480.57 C 515.23 479.20, 512.62 479.49, 508.12 480.07 C 503.62 480.65, 500.99 481.48, 496.14 483.46 C 491.29 485.45, 488.42 486.83, 483.86 489.98 C 479.31 493.12, 476.90 495.25, 473.36 499.19 C 469.83 503.13, 468.05 505.36, 466.18 509.68 C 464.32 513.99, 463.48 516.57, 464.06 520.78 C 464.64 524.98, 465.97 527.49, 469.08 530.70 C 472.19 533.91, 474.69 534.96, 479.60 536.84 C 484.52 538.72, 487.56 539.29, 493.66 540.11 C 499.76 540.93, 503.35 540.99, 510.10 540.94 C 516.85 540.90, 520.60 540.61, 527.41 539.88 C 534.22 539.16, 537.71 538.63, 544.14 537.32 C 550.57 536.01, 553.77 535.18, 559.56 533.33 C 565.36 531.47, 568.17 530.37, 573.10 528.06 C 578.03 525.75, 580.23 524.47, 584.22 521.77 C 588.21 519.08, 590.16 517.68, 593.05 514.57 C 595.93 511.47, 597.35 509.74, 598.65 506.25 C 599.94 502.76, 600.09 500.63, 599.51 497.11 C 598.92 493.59, 598.07 491.44, 595.72 488.63 C 593.37 485.81, 591.41 484.32, 587.76 483.02 C 584.11 481.73, 581.68 481.74, 577.47 482.16 C 573.26 482.58, 570.81 483.26, 566.72 485.12 C 562.64 486.98, 560.44 488.33, 557.05 491.45 C 553.66 494.57, 551.78 496.61, 549.78 500.70 C 547.77 504.80, 546.89 507.45, 547.04 511.91 C 547.18 516.37, 548.04 519.00, 550.52 522.99 C 552.99 526.99, 554.96 528.87, 559.41 531.87 C 563.86 534.86, 566.88 536.05, 572.78 537.96 C 578.68 539.88, 582.28 540.60, 588.91 541.45 C 595.54 542.30, 599.24 542.43, 605.93 542.21 C 612.61 541.98, 616.15 541.49, 622.35 540.31 C 628.55 539.14, 631.61 538.28, 636.93 536.33 C 642.24 534.39, 644.76 533.23, 648.93 530.60 C 653.09 527.97, 654.88 526.35, 657.77 523.19 C 660.65 520.04, 661.72 518.22, 663.34 514.83 C 664.95 511.44, 665.44 509.45, 665.82 506.24 C 666.20 503.03, 666.21 501.14, 665.24 498.80 C 664.27 496.46, 663.08 495.12, 660.98 494.55 C 658.88 493.98, 656.61 494.45, 654.75 495.95 C 652.88 497.46, 651.60 499.31, 651.65 502.07 C 651.71 504.83, 653.16 506.48, 655.04 509.75 C 656.91 513.01, 658.70 514.93, 661.01 518.40 C 663.33 521.87, 664.52 523.96, 666.62 527.09 C 668.72 530.22, 669.30 532.26, 671.50 534.05 C 673.70 535.85, 675.25 536.22, 677.62 536.09 C 679.98 535.95, 681.58 535.18, 683.33 533.38 C 685.08 531.58, 686.21 529.81, 686.38 527.08 C 686.54 524.35, 685.27 522.83, 684.17 519.73 C 683.08 516.63, 681.90 514.80, 680.90 511.57 C 679.89 508.34, 679.48 506.31, 679.15 503.56 C 678.82 500.82, 678.87 499.69, 679.24 497.84 C 679.61 496.00, 679.80 495.62, 681.00 494.33 C 682.20 493.05, 682.92 492.57, 685.24 491.42 C 687.56 490.27, 689.04 489.62, 692.59 488.59 C 696.14 487.55, 698.60 487.04, 702.98 486.25 C 707.37 485.46, 709.83 485.29, 714.53 484.64 C 719.24 483.99, 721.84 483.62, 726.51 483.00 C 731.17 482.38, 733.56 482.14, 737.86 481.53 C 742.16 480.92, 744.14 480.63, 747.99 479.94 C 751.84 479.25, 753.74 479.02, 757.11 478.09 C 760.49 477.15, 762.13 476.70, 764.86 475.25 C 767.59 473.81, 768.68 472.77, 770.76 470.88 C 772.84 468.98, 773.84 467.93, 775.25 465.79 C 776.65 463.64, 777.25 462.33, 777.77 460.17 C 778.30 458.01, 778.68 456.71, 777.89 455.00 C 777.09 453.28, 775.88 452.09, 773.79 451.58 C 771.70 451.07, 769.42 451.24, 767.44 452.45 C 765.46 453.65, 764.31 455.04, 763.89 457.61 C 763.48 460.18, 764.29 461.82, 765.36 465.31 C 766.44 468.79, 767.70 470.87, 769.27 475.03 C 770.84 479.20, 771.52 481.64, 773.19 486.14 C 774.86 490.64, 775.72 493.13, 777.62 497.54 C 779.52 501.95, 780.70 504.20, 782.71 508.17 C 784.71 512.14, 785.72 513.89, 787.63 517.38 C 789.54 520.88, 790.46 522.77, 792.25 525.65 C 794.03 528.52, 794.85 530.09, 796.56 531.76 C 798.26 533.44, 799.26 533.74, 800.78 534.03 C 802.31 534.32, 802.91 533.91, 804.18 533.21 C 805.44 532.51, 806.55 531.40, 807.12 530.54 C 807.70 529.67, 808.35 528.42, 807.07 528.87 C 805.79 529.32, 801.77 531.95, 800.74 532.79 C 799.71 533.64, 801.04 533.39, 801.91 533.11 C 802.79 532.84, 804.16 532.29, 805.10 531.42 C 806.05 530.56, 806.59 530.14, 806.63 528.78 C 806.68 527.42, 806.50 526.49, 805.33 524.63 C 804.16 522.77, 802.81 521.87, 800.79 519.47 C 798.76 517.08, 797.36 515.69, 795.20 512.66 C 793.03 509.63, 791.99 507.99, 789.97 504.33 C 787.94 500.68, 786.79 498.56, 785.06 494.39 C 783.34 490.22, 782.55 487.86, 781.34 483.49 C 780.14 479.12, 779.59 476.67, 779.03 472.53 C 778.47 468.40, 778.72 466.00, 778.53 462.82 C 778.35 459.64, 778.81 458.33, 778.11 456.64 C 777.40 454.95, 776.56 454.83, 775.00 454.38 C 773.45 453.94, 771.88 454.27, 770.32 454.41 C 768.76 454.56, 767.98 454.60, 767.21 455.09 C 766.43 455.59, 766.80 455.97, 766.44 456.89 C 766.08 457.80, 766.05 458.50, 765.40 459.67 C 764.75 460.85, 764.38 461.58, 763.18 462.74 C 761.97 463.90, 761.27 464.35, 759.39 465.49 C 757.52 466.62, 756.48 467.27, 753.80 468.41 C 751.11 469.55, 749.43 470.19, 745.97 471.19 C 742.51 472.19, 740.60 472.61, 736.50 473.41 C 732.39 474.21, 730.02 474.53, 725.43 475.18 C 720.85 475.83, 718.30 476.16, 713.56 476.65 C 708.83 477.15, 706.41 477.15, 701.76 477.65 C 697.12 478.14, 694.56 478.31, 690.34 479.12 C 686.12 479.94, 684.13 480.14, 680.66 481.72 C 677.20 483.30, 675.43 484.34, 673.00 487.01 C 670.58 489.69, 669.53 491.63, 668.53 495.10 C 667.54 498.58, 667.87 500.61, 668.03 504.40 C 668.19 508.19, 668.84 510.21, 669.34 514.03 C 669.84 517.86, 669.83 520.20, 670.54 523.54 C 671.24 526.88, 671.45 528.87, 672.86 530.74 C 674.28 532.62, 676.03 532.85, 677.63 532.90 C 679.22 532.96, 680.28 532.32, 680.85 531.03 C 681.42 529.75, 681.51 528.54, 680.49 526.50 C 679.46 524.46, 677.66 523.59, 675.71 520.84 C 673.77 518.09, 672.44 516.19, 670.76 512.76 C 669.08 509.33, 668.57 506.80, 667.33 503.71 C 666.08 500.62, 666.04 498.85, 664.51 497.31 C 662.98 495.78, 661.51 495.91, 659.66 496.02 C 657.82 496.14, 656.46 496.87, 655.29 497.89 C 654.12 498.90, 654.01 499.57, 653.83 501.10 C 653.64 502.62, 654.29 503.47, 654.34 505.52 C 654.39 507.56, 654.68 508.85, 654.07 511.34 C 653.47 513.83, 653.14 515.30, 651.31 517.97 C 649.48 520.64, 648.24 522.21, 644.90 524.71 C 641.57 527.20, 639.37 528.47, 634.64 530.44 C 629.90 532.41, 626.99 533.36, 621.21 534.55 C 615.43 535.75, 612.04 536.25, 605.75 536.43 C 599.46 536.61, 595.91 536.39, 589.76 535.44 C 583.60 534.48, 580.18 533.59, 574.97 531.65 C 569.76 529.71, 567.19 528.32, 563.72 525.74 C 560.26 523.16, 559.21 521.54, 557.66 518.75 C 556.11 515.96, 555.90 514.57, 555.96 511.80 C 556.02 509.03, 556.49 507.57, 557.96 504.92 C 559.43 502.27, 560.80 500.66, 563.33 498.54 C 565.86 496.42, 567.62 495.42, 570.59 494.32 C 573.55 493.22, 575.51 493.05, 578.16 493.04 C 580.81 493.02, 581.95 493.60, 583.82 494.24 C 585.69 494.89, 586.35 495.32, 587.49 496.26 C 588.64 497.21, 589.22 497.63, 589.54 498.96 C 589.85 500.30, 589.70 500.91, 589.08 502.93 C 588.46 504.96, 588.27 506.49, 586.43 509.08 C 584.59 511.67, 583.11 513.24, 579.87 515.89 C 576.63 518.53, 574.65 519.93, 570.22 522.30 C 565.78 524.68, 563.14 525.85, 557.70 527.76 C 552.26 529.67, 549.17 530.54, 543.00 531.85 C 536.83 533.15, 533.42 533.67, 526.85 534.28 C 520.28 534.90, 516.58 535.10, 510.16 534.93 C 503.74 534.76, 500.26 534.48, 494.73 533.43 C 489.19 532.39, 486.43 531.43, 482.49 529.72 C 478.56 528.00, 477.05 526.86, 475.04 524.86 C 473.02 522.85, 472.72 522.07, 472.43 519.68 C 472.15 517.29, 472.27 515.95, 473.60 512.89 C 474.94 509.82, 476.19 507.61, 479.11 504.33 C 482.03 501.05, 484.21 499.02, 488.19 496.48 C 492.18 493.94, 494.92 492.84, 499.04 491.63 C 503.16 490.43, 505.63 490.36, 508.78 490.45 C 511.94 490.54, 513.00 491.70, 514.80 492.08 C 516.60 492.46, 517.21 492.11, 517.79 492.34 C 518.38 492.58, 518.26 492.43, 517.71 493.24 C 517.17 494.05, 516.44 494.70, 515.08 496.40 C 513.73 498.11, 513.20 499.58, 510.93 501.78 C 508.65 503.99, 506.89 505.30, 503.72 507.42 C 500.54 509.55, 498.50 510.64, 495.06 512.41 C 491.62 514.18, 489.42 514.77, 486.52 516.27 C 483.62 517.77, 482.22 518.31, 480.55 519.91 C 478.89 521.51, 478.29 522.45, 478.18 524.27 C 478.07 526.09, 478.56 527.79, 480.01 529.00" style="stroke: black; fill: black;"/><path d="M 753.56,508.85 C 754.76 510.12, 755.63 510.68, 758.24 510.62 C 760.86 510.57, 762.33 509.50, 766.64 508.60 C 770.95 507.70, 773.98 507.02, 779.80 506.12 C 785.61 505.23, 789.17 504.68, 795.73 504.11 C 802.28 503.54, 805.96 503.41, 812.56 503.27 C 819.16 503.13, 822.77 503.10, 828.75 503.42 C 834.73 503.73, 837.62 504.15, 842.46 504.85 C 847.30 505.55, 849.52 506.55, 852.94 506.91 C 856.36 507.27, 858.05 507.47, 859.55 506.66 C 861.05 505.84, 861.48 504.22, 860.44 502.82 C 859.39 501.41, 857.77 500.58, 854.33 499.62 C 850.89 498.67, 848.31 498.49, 843.24 498.06 C 838.16 497.63, 835.11 497.57, 828.96 497.47 C 822.80 497.36, 819.18 497.41, 812.46 497.51 C 805.73 497.61, 802.02 497.71, 795.34 497.96 C 788.66 498.21, 785.04 498.50, 779.06 498.78 C 773.08 499.05, 770.03 499.10, 765.45 499.35 C 760.86 499.59, 758.79 499.02, 756.15 500.01 C 753.50 501.00, 752.75 502.52, 752.23 504.29 C 751.71 506.06, 752.36 507.59, 753.56 508.85" style="stroke: black; fill: black;"/><path d="M 1047.35,438.84 C 1046.08 440.03, 1045.34 440.99, 1045.51 444.17 C 1045.69 447.35, 1046.82 449.43, 1048.22 454.72 C 1049.62 460.01, 1050.67 463.84, 1052.52 470.63 C 1054.36 477.41, 1055.46 481.56, 1057.44 488.64 C 1059.43 495.72, 1060.63 499.63, 1062.42 506.04 C 1064.22 512.44, 1065.05 515.44, 1066.42 520.65 C 1067.80 525.87, 1068.10 528.43, 1069.30 532.11 C 1070.50 535.80, 1071.04 537.18, 1072.42 539.10 C 1073.80 541.03, 1074.88 541.51, 1076.20 541.74 C 1077.53 541.97, 1078.45 541.39, 1079.06 540.25 C 1079.67 539.10, 1079.71 538.19, 1079.25 536.03 C 1078.79 533.86, 1078.12 532.88, 1076.75 529.43 C 1075.38 525.99, 1074.21 523.78, 1072.41 518.79 C 1070.62 513.80, 1069.67 510.80, 1067.77 504.48 C 1065.86 498.16, 1064.68 494.26, 1062.88 487.19 C 1061.09 480.12, 1060.18 475.95, 1058.81 469.14 C 1057.45 462.33, 1056.82 458.43, 1056.06 453.12 C 1055.30 447.82, 1055.85 445.58, 1055.01 442.60 C 1054.17 439.62, 1053.38 438.98, 1051.84 438.23 C 1050.31 437.48, 1048.61 437.66, 1047.35 438.84" style="stroke: black; fill: black;"/><path d="M 979.59,444.90 C 980.86 445.94, 981.52 446.06, 984.52 445.75 C 987.51 445.45, 989.17 444.34, 994.55 443.38 C 999.94 442.43, 1003.67 441.73, 1011.45 440.99 C 1019.23 440.25, 1024.12 440.09, 1033.44 439.68 C 1042.76 439.27, 1048.34 439.07, 1058.04 438.95 C 1067.74 438.82, 1072.85 438.88, 1081.93 439.06 C 1091.02 439.23, 1095.58 439.36, 1103.45 439.83 C 1111.32 440.30, 1115.08 440.61, 1121.28 441.40 C 1127.49 442.19, 1130.23 442.72, 1134.48 443.76 C 1138.72 444.80, 1140.38 445.37, 1142.50 446.60 C 1144.63 447.83, 1144.37 448.04, 1145.11 449.93 C 1145.84 451.83, 1145.88 452.91, 1146.17 456.07 C 1146.46 459.23, 1146.54 461.38, 1146.55 465.75 C 1146.55 470.11, 1146.26 472.92, 1146.18 477.90 C 1146.11 482.89, 1145.97 485.76, 1146.18 490.67 C 1146.39 495.58, 1146.63 498.05, 1147.24 502.46 C 1147.84 506.86, 1148.01 509.10, 1149.20 512.70 C 1150.39 516.29, 1151.12 518.04, 1153.19 520.42 C 1155.26 522.81, 1156.72 523.63, 1159.55 524.63 C 1162.37 525.63, 1164.21 525.89, 1167.31 525.42 C 1170.40 524.94, 1172.28 524.25, 1175.02 522.25 C 1177.75 520.25, 1178.51 518.24, 1180.98 515.40 C 1183.45 512.56, 1184.81 510.72, 1187.37 508.06 C 1189.94 505.40, 1191.64 504.03, 1193.79 502.11 C 1195.94 500.19, 1196.86 499.40, 1198.13 498.45 C 1199.40 497.50, 1199.44 497.11, 1200.13 497.37 C 1200.82 497.64, 1200.69 498.31, 1201.58 499.77 C 1202.46 501.23, 1202.92 502.40, 1204.55 504.66 C 1206.19 506.92, 1207.43 508.39, 1209.77 511.07 C 1212.11 513.76, 1213.39 515.40, 1216.25 518.10 C 1219.10 520.80, 1220.66 522.32, 1224.04 524.58 C 1227.43 526.83, 1229.33 527.99, 1233.18 529.39 C 1237.04 530.80, 1239.21 531.35, 1243.32 531.62 C 1247.42 531.88, 1249.67 531.68, 1253.70 530.74 C 1257.72 529.79, 1259.73 528.93, 1263.43 526.90 C 1267.13 524.87, 1268.91 523.45, 1272.20 520.56 C 1275.49 517.68, 1277.15 515.91, 1279.90 512.50 C 1282.64 509.08, 1284.01 507.12, 1285.94 503.51 C 1287.86 499.90, 1289.14 498.00, 1289.53 494.44 C 1289.92 490.88, 1289.44 488.78, 1287.90 485.71 C 1286.37 482.64, 1284.93 480.86, 1281.86 479.10 C 1278.79 477.34, 1276.43 476.64, 1272.57 476.91 C 1268.71 477.18, 1266.21 478.23, 1262.56 480.43 C 1258.92 482.64, 1256.95 484.39, 1254.34 487.93 C 1251.73 491.46, 1250.58 493.80, 1249.52 498.12 C 1248.47 502.43, 1248.10 505.11, 1249.05 509.51 C 1250.00 513.90, 1251.31 516.33, 1254.29 520.08 C 1257.26 523.84, 1259.43 525.56, 1263.90 528.27 C 1268.37 530.97, 1271.13 532.00, 1276.62 533.60 C 1282.11 535.21, 1285.32 535.74, 1291.33 536.30 C 1297.34 536.86, 1300.63 536.92, 1306.66 536.42 C 1312.69 535.92, 1316.00 535.29, 1321.49 533.81 C 1326.97 532.33, 1329.49 531.34, 1334.08 529.03 C 1338.66 526.71, 1340.74 525.24, 1344.41 522.25 C 1348.08 519.25, 1349.74 517.40, 1352.41 514.05 C 1355.09 510.70, 1356.55 508.75, 1357.79 505.50 C 1359.03 502.25, 1359.41 499.98, 1358.61 497.81 C 1357.81 495.63, 1355.76 494.48, 1353.79 494.62 C 1351.82 494.76, 1349.58 496.07, 1348.75 498.50 C 1347.92 500.92, 1348.12 503.38, 1349.65 506.75 C 1351.18 510.11, 1353.23 512.09, 1356.41 515.32 C 1359.60 518.54, 1361.60 520.27, 1365.56 522.88 C 1369.52 525.49, 1371.91 526.68, 1376.23 528.37 C 1380.55 530.06, 1382.78 530.56, 1387.18 531.32 C 1391.57 532.09, 1393.91 532.26, 1398.22 532.20 C 1402.53 532.14, 1404.93 532.00, 1408.73 531.01 C 1412.53 530.01, 1414.32 529.11, 1417.24 527.22 C 1420.15 525.32, 1421.82 523.96, 1423.31 521.53 C 1424.80 519.10, 1425.36 516.93, 1424.68 515.08 C 1424.00 513.23, 1421.74 512.01, 1419.93 512.29 C 1418.12 512.57, 1415.90 513.72, 1415.61 516.49 C 1415.33 519.25, 1417.17 521.40, 1418.51 526.10 C 1419.85 530.81, 1420.74 534.07, 1422.31 540.03 C 1423.87 546.00, 1424.71 549.66, 1426.33 555.94 C 1427.94 562.23, 1429.08 565.51, 1430.38 571.46 C 1431.69 577.42, 1432.21 580.28, 1432.85 585.71 C 1433.49 591.14, 1433.73 593.94, 1433.58 598.62 C 1433.44 603.31, 1433.23 605.51, 1432.12 609.14 C 1431.02 612.78, 1430.19 614.14, 1428.07 616.78 C 1425.95 619.41, 1424.84 620.47, 1421.54 622.32 C 1418.24 624.18, 1416.14 624.99, 1411.56 626.05 C 1406.99 627.10, 1404.08 627.57, 1398.67 627.61 C 1393.26 627.66, 1390.00 627.32, 1384.51 626.27 C 1379.02 625.23, 1376.03 624.30, 1371.21 622.41 C 1366.40 620.52, 1363.92 619.37, 1360.43 616.83 C 1356.95 614.29, 1355.56 612.68, 1353.78 609.70 C 1352.00 606.73, 1351.56 605.41, 1351.55 601.95 C 1351.53 598.49, 1351.92 596.57, 1353.71 592.41 C 1355.51 588.25, 1356.83 585.74, 1360.52 581.15 C 1364.21 576.56, 1366.75 573.99, 1372.17 569.46 C 1377.58 564.94, 1381.06 562.64, 1387.61 558.52 C 1394.16 554.39, 1397.93 552.43, 1404.90 548.83 C 1411.86 545.22, 1415.70 543.59, 1422.44 540.50 C 1429.17 537.42, 1432.64 536.09, 1438.57 533.39 C 1444.49 530.69, 1447.27 529.45, 1452.07 527.00 C 1456.86 524.56, 1458.92 523.48, 1462.53 521.16 C 1466.13 518.85, 1467.74 517.84, 1470.08 515.43 C 1472.42 513.03, 1473.02 511.52, 1474.23 509.16 C 1475.43 506.79, 1475.59 505.58, 1476.10 503.62 C 1476.61 501.66, 1476.76 500.58, 1476.79 499.37 C 1476.81 498.17, 1476.44 497.81, 1476.22 497.59 C 1476.00 497.37, 1475.45 497.86, 1475.68 498.27 C 1475.91 498.68, 1476.04 499.20, 1477.37 499.65 C 1478.71 500.10, 1479.71 500.31, 1482.35 500.54 C 1484.99 500.77, 1487.00 500.35, 1490.58 500.80 C 1494.15 501.25, 1496.42 501.69, 1500.21 502.79 C 1503.99 503.89, 1506.15 504.69, 1509.52 506.31 C 1512.89 507.94, 1514.72 509.19, 1517.05 510.92 C 1519.38 512.64, 1520.07 513.61, 1521.17 514.94 C 1522.27 516.26, 1522.53 516.58, 1522.54 517.54 C 1522.56 518.51, 1522.26 518.66, 1521.22 519.75 C 1520.19 520.85, 1519.56 521.50, 1517.38 523.02 C 1515.20 524.53, 1513.74 525.76, 1510.33 527.34 C 1506.92 528.92, 1504.64 529.78, 1500.33 530.92 C 1496.01 532.06, 1493.37 532.48, 1488.74 533.05 C 1484.12 533.62, 1481.63 533.77, 1477.20 533.76 C 1472.78 533.75, 1470.37 533.57, 1466.62 533.01 C 1462.87 532.45, 1461.10 531.15, 1458.46 530.96 C 1455.82 530.77, 1454.96 531.56, 1453.42 532.05 C 1451.88 532.54, 1451.45 532.61, 1450.75 533.41 C 1450.05 534.21, 1449.73 534.96, 1449.93 536.04 C 1450.13 537.12, 1450.39 537.60, 1451.76 538.81 C 1453.13 540.01, 1453.91 541.43, 1456.76 542.07 C 1459.62 542.72, 1461.92 542.09, 1466.04 542.04 C 1470.17 541.98, 1472.67 542.01, 1477.39 541.80 C 1482.11 541.58, 1484.67 541.46, 1489.63 540.95 C 1494.60 540.44, 1497.36 540.14, 1502.19 539.23 C 1507.02 538.31, 1509.51 537.75, 1513.78 536.39 C 1518.06 535.03, 1520.24 534.55, 1523.58 532.45 C 1526.91 530.34, 1528.75 528.91, 1530.46 525.86 C 1532.16 522.81, 1532.26 520.58, 1532.12 517.20 C 1531.98 513.83, 1531.57 511.90, 1529.74 509.00 C 1527.91 506.09, 1526.19 504.92, 1522.96 502.66 C 1519.72 500.41, 1517.51 499.55, 1513.58 497.73 C 1509.66 495.90, 1507.40 495.11, 1503.34 493.55 C 1499.28 491.99, 1497.06 491.31, 1493.29 489.92 C 1489.51 488.54, 1487.73 487.30, 1484.46 486.63 C 1481.18 485.97, 1479.56 485.98, 1476.90 486.58 C 1474.23 487.18, 1473.01 488.11, 1471.14 489.63 C 1469.26 491.15, 1468.49 492.47, 1467.51 494.19 C 1466.53 495.91, 1466.50 496.76, 1466.23 498.23 C 1465.97 499.71, 1466.35 500.24, 1466.18 501.56 C 1466.01 502.87, 1466.08 503.31, 1465.39 504.82 C 1464.69 506.33, 1464.19 507.04, 1462.70 509.11 C 1461.21 511.17, 1460.68 512.64, 1457.95 515.14 C 1455.22 517.64, 1453.38 518.93, 1449.04 521.62 C 1444.70 524.31, 1442.00 525.69, 1436.26 528.59 C 1430.53 531.48, 1427.08 532.89, 1420.37 536.10 C 1413.67 539.30, 1409.79 540.96, 1402.72 544.61 C 1395.65 548.25, 1391.81 550.19, 1385.01 554.32 C 1378.22 558.45, 1374.60 560.67, 1368.76 565.24 C 1362.91 569.81, 1360.07 572.31, 1355.80 577.16 C 1351.52 582.02, 1349.71 584.57, 1347.37 589.53 C 1345.03 594.50, 1344.10 597.18, 1344.11 601.97 C 1344.12 606.76, 1344.98 609.39, 1347.43 613.49 C 1349.89 617.60, 1352.09 619.49, 1356.37 622.51 C 1360.65 625.52, 1363.46 626.53, 1368.84 628.56 C 1374.22 630.60, 1377.31 631.52, 1383.27 632.70 C 1389.23 633.87, 1392.67 634.35, 1398.63 634.45 C 1404.60 634.55, 1407.77 634.28, 1413.10 633.20 C 1418.43 632.13, 1421.08 631.41, 1425.29 629.09 C 1429.51 626.77, 1431.39 625.19, 1434.19 621.60 C 1436.98 618.02, 1438.02 615.75, 1439.25 611.16 C 1440.47 606.58, 1440.37 603.93, 1440.31 598.68 C 1440.25 593.43, 1439.78 590.60, 1438.95 584.90 C 1438.13 579.21, 1437.49 576.28, 1436.18 570.20 C 1434.87 564.13, 1433.73 560.85, 1432.39 554.52 C 1431.05 548.20, 1430.38 544.58, 1429.49 538.57 C 1428.61 532.56, 1428.27 529.25, 1427.97 524.47 C 1427.66 519.69, 1429.07 517.35, 1427.97 514.65 C 1426.88 511.95, 1424.76 511.55, 1422.49 510.95 C 1420.21 510.35, 1418.37 510.95, 1416.60 511.65 C 1414.84 512.35, 1414.89 513.21, 1413.68 514.48 C 1412.46 515.74, 1412.13 516.59, 1410.53 517.97 C 1408.93 519.36, 1408.23 520.37, 1405.69 521.38 C 1403.14 522.39, 1401.24 522.75, 1397.81 523.03 C 1394.38 523.31, 1392.23 523.32, 1388.56 522.78 C 1384.89 522.24, 1382.97 521.83, 1379.47 520.35 C 1375.96 518.88, 1373.90 517.80, 1371.01 515.41 C 1368.13 513.02, 1366.77 511.33, 1365.03 508.41 C 1363.30 505.50, 1363.51 503.28, 1362.32 500.82 C 1361.14 498.36, 1360.75 497.32, 1359.09 496.11 C 1357.42 494.91, 1355.91 494.73, 1354.00 494.79 C 1352.09 494.86, 1350.86 495.07, 1349.52 496.44 C 1348.19 497.81, 1348.22 499.12, 1347.33 501.65 C 1346.45 504.18, 1346.68 506.12, 1345.08 509.10 C 1343.48 512.07, 1342.20 513.75, 1339.35 516.51 C 1336.49 519.27, 1334.75 520.69, 1330.82 522.89 C 1326.90 525.09, 1324.67 526.08, 1319.73 527.50 C 1314.79 528.93, 1311.68 529.56, 1306.14 530.02 C 1300.59 530.47, 1297.49 530.39, 1292.01 529.76 C 1286.53 529.13, 1283.52 528.47, 1278.73 526.86 C 1273.93 525.26, 1271.59 524.12, 1268.05 521.74 C 1264.51 519.35, 1263.04 517.74, 1261.04 514.95 C 1259.04 512.16, 1258.48 510.64, 1258.05 507.79 C 1257.63 504.95, 1258.01 503.41, 1258.91 500.74 C 1259.81 498.07, 1260.70 496.49, 1262.53 494.46 C 1264.36 492.43, 1265.76 491.61, 1268.05 490.61 C 1270.35 489.60, 1272.04 489.85, 1274.00 489.45 C 1275.96 489.06, 1276.76 488.64, 1277.83 488.63 C 1278.90 488.62, 1279.21 488.59, 1279.35 489.40 C 1279.49 490.21, 1279.02 490.73, 1278.53 492.67 C 1278.04 494.61, 1278.10 496.28, 1276.89 499.09 C 1275.68 501.90, 1274.63 503.83, 1272.48 506.74 C 1270.32 509.64, 1268.82 511.24, 1266.11 513.62 C 1263.41 516.00, 1261.86 517.09, 1258.96 518.63 C 1256.05 520.18, 1254.55 520.69, 1251.56 521.34 C 1248.57 521.99, 1246.99 522.10, 1244.01 521.87 C 1241.02 521.64, 1239.48 521.28, 1236.63 520.18 C 1233.78 519.08, 1232.33 518.23, 1229.76 516.35 C 1227.19 514.47, 1225.93 513.23, 1223.78 510.78 C 1221.63 508.34, 1220.77 506.88, 1219.02 504.12 C 1217.27 501.36, 1216.95 499.59, 1215.01 496.98 C 1213.07 494.37, 1211.99 492.80, 1209.33 491.09 C 1206.67 489.38, 1204.79 488.82, 1201.70 488.42 C 1198.60 488.02, 1196.88 488.07, 1193.85 489.08 C 1190.83 490.10, 1189.42 491.22, 1186.57 493.48 C 1183.72 495.74, 1182.39 497.64, 1179.61 500.40 C 1176.83 503.16, 1175.22 504.95, 1172.65 507.28 C 1170.09 509.61, 1168.53 510.43, 1166.77 512.06 C 1165.01 513.70, 1164.71 514.56, 1163.86 515.45 C 1163.01 516.34, 1163.05 516.73, 1162.53 516.50 C 1162.01 516.27, 1162.08 515.74, 1161.24 514.30 C 1160.40 512.86, 1159.46 511.95, 1158.32 509.29 C 1157.17 506.63, 1156.35 504.80, 1155.51 501.00 C 1154.67 497.20, 1154.35 494.86, 1154.12 490.30 C 1153.89 485.74, 1154.09 483.05, 1154.36 478.19 C 1154.63 473.32, 1155.22 470.60, 1155.47 465.99 C 1155.71 461.37, 1156.04 459.18, 1155.60 455.11 C 1155.15 451.05, 1155.14 448.77, 1153.24 445.66 C 1151.34 442.54, 1149.61 441.17, 1146.09 439.54 C 1142.57 437.91, 1140.50 438.14, 1135.64 437.50 C 1130.77 436.85, 1128.16 436.71, 1121.76 436.31 C 1115.37 435.91, 1111.60 435.74, 1103.65 435.48 C 1095.70 435.23, 1091.13 435.15, 1082.00 435.04 C 1072.87 434.92, 1067.74 434.87, 1058.01 434.90 C 1048.27 434.93, 1042.70 435.08, 1033.32 435.18 C 1023.94 435.29, 1019.03 435.26, 1011.13 435.43 C 1003.22 435.60, 999.46 435.80, 993.77 436.03 C 988.09 436.25, 985.83 435.65, 982.71 436.55 C 979.58 437.45, 978.77 438.86, 978.15 440.53 C 977.52 442.20, 978.31 443.85, 979.59 444.90" style="stroke: black; fill: black;"/></svg>